<?xml version="1.0" encoding="UTF-8" standalone="no"?>
<!-- Created with Inkscape (http://www.inkscape.org/) -->

<svg
   width="50.296635mm"
   height="49.960903mm"
   viewBox="0 0 50.296635 49.960903"
   version="1.1"
   id="svg293"
   inkscape:export-filename="bitmap.svg"
   inkscape:export-xdpi="96"
   inkscape:export-ydpi="96"
   xmlns:inkscape="http://www.inkscape.org/namespaces/inkscape"
   xmlns:sodipodi="http://sodipodi.sourceforge.net/DTD/sodipodi-0.dtd"
   xmlns="http://www.w3.org/2000/svg"
   xmlns:svg="http://www.w3.org/2000/svg">
  <sodipodi:namedview
     id="namedview295"
     pagecolor="#ffffff"
     bordercolor="#000000"
     borderopacity="0.25"
     inkscape:showpageshadow="2"
     inkscape:pageopacity="0.0"
     inkscape:pagecheckerboard="0"
     inkscape:deskcolor="#d1d1d1"
     inkscape:document-units="mm"
     showgrid="false" />
  <defs
     id="defs290" />
  <g
     inkscape:label="Layer 1"
     inkscape:groupmode="layer"
     id="layer1"
     transform="translate(-25.107663,-16.654924)">
    <path
       style="fill:#000000;stroke-width:0.264583"
       d="m 42.858649,49.939164 c -2.233051,-0.728136 -4.731795,-2.653295 -5.831512,-4.49289 -1.374515,-2.299282 -1.486397,-3.031392 -1.192329,-7.802321 0.276165,-4.480516 0.804104,-6.695966 2.023134,-8.489932 l 0.596085,-0.877219 1.439482,1.144443 c 0.791715,0.629444 1.849792,1.576194 2.35128,2.103888 l 0.911797,0.959445 h 3.330636 3.330633 l 0.449781,-0.761417 c 0.48636,-0.823342 3.518879,-3.7365 3.889597,-3.7365 0.247497,0 1.293913,2.651929 2.035821,5.159375 0.362148,1.223965 0.471551,2.556925 0.477739,5.820833 0.0075,3.958744 -0.03384,4.319143 -0.637571,5.55625 -0.979991,2.008119 -3.522253,4.417248 -5.439815,5.154943 -2.259476,0.869231 -5.531051,0.979671 -7.734758,0.261102 z"
       id="path176"
       inkscape:label="cats head" />
    <path
       id="path174"
       style="fill:#2e8b57;fill-opacity:1;stroke-width:0.264583"
       d="m 45.729622,16.655053 c -1.384202,0.004 -2.683825,0.102254 -3.63854,0.305408 -5.819248,1.238281 -10.975789,4.848865 -13.878737,9.71827 -5.646301,9.471112 -3.425065,21.284202 5.31182,28.248921 7.079123,5.643216 17.15189,5.990773 24.762828,0.85421 0.658188,-0.444201 1.290802,-0.807701 1.406118,-0.807701 0.115316,0 2.793484,2.619377 5.951574,5.820833 l 5.742284,5.820833 h 1.174607 c 1.677911,0 2.84272,-1.056431 2.84272,-2.578137 0,-0.653991 -0.199093,-1.353325 -0.499194,-1.753899 -0.274506,-0.366411 -2.99951,-2.956787 -6.055445,-5.756754 -3.055935,-2.799963 -5.592794,-5.17829 -5.637382,-5.284948 -0.04458,-0.106659 0.328438,-0.769276 0.82889,-1.472261 2.285211,-3.210041 3.351881,-6.424089 3.546554,-10.686169 0.465026,-10.1811 -5.6617,-18.796041 -15.441951,-21.712887 -1.567773,-0.46757 -4.109144,-0.722413 -6.416146,-0.715719 z m 0.895035,4.365625 c 2.186376,0.0012 3.0114,0.126604 4.752165,0.722437 5.48635,1.877881 9.818646,6.580734 11.262361,12.22561 1.534337,5.99919 -0.771316,13.21256 -5.462199,17.08888 -1.588053,1.312291 -5.086311,2.994927 -6.980452,3.357417 -6.349622,1.215152 -11.404986,-0.26022 -15.750976,-4.596619 -3.398867,-3.391366 -4.966462,-7.186549 -4.973339,-12.042159 -0.0067,-4.755859 1.501331,-8.331642 4.966621,-11.776542 3.490425,-3.469889 7.190417,-4.981682 12.185819,-4.979024 z"
       inkscape:label="magnifying glass" />
  </g>
</svg>
