<svg xmlns="http://www.w3.org/2000/svg" viewBox="0 0 820 220" role="img" aria-labelledby="title desc">
  <title id="title">OpenCATS logo placeholder</title>
  <desc id="desc">Combined vector placeholder for the OpenCATS mark and wordmark.</desc>
  <rect width="820" height="220" rx="44" fill="none"/>
  <rect x="16" y="30" width="160" height="160" rx="40" fill="#10253f"/>
  <path d="M58 117c0-30 22-53 52-53 10 0 19 2 27 7l-11 21a35 35 0 0 0-16-4c-16 0-28 12-28 29s12 29 28 29c7 0 13-1 19-5l11 21a56 56 0 0 1-30 8c-30 0-52-23-52-53Z" fill="#fff"/>
  <path d="M48 64h32l12 20H62L48 64Zm92 0h32l-13 20h-30l11-20Z" fill="#67d38c"/>
  <text x="212" y="132" fill="#10253f" font-family="Inter, Lato, Arial, sans-serif" font-size="84" font-weight="800" letter-spacing="-3">Open<tspan fill="#2fbf71">CATS</tspan></text>
</svg>
